<mxfile host="app.diagrams.net" agent="Mozilla/5.0 (Windows NT 10.0; Win64; x64) AppleWebKit/537.36 (KHTML, like Gecko) Chrome/139.0.0.0 Safari/537.36" version="28.1.2">
  <diagram name="Página-1" id="z-Ayx0zKnFWMYeDXmUZF">
    <mxGraphModel dx="1043" dy="555" grid="1" gridSize="10" guides="1" tooltips="1" connect="1" arrows="1" fold="1" page="1" pageScale="1" pageWidth="827" pageHeight="1169" math="0" shadow="0">
      <root>
        <mxCell id="0" />
        <mxCell id="1" parent="0" />
        <mxCell id="s22BSp-2CHlA1629Z4m0-24" style="edgeStyle=orthogonalEdgeStyle;rounded=0;orthogonalLoop=1;jettySize=auto;html=1;entryX=0.5;entryY=0;entryDx=0;entryDy=0;" edge="1" parent="1" source="s22BSp-2CHlA1629Z4m0-14" target="s22BSp-2CHlA1629Z4m0-16">
          <mxGeometry relative="1" as="geometry" />
        </mxCell>
        <mxCell id="s22BSp-2CHlA1629Z4m0-25" style="edgeStyle=orthogonalEdgeStyle;rounded=0;orthogonalLoop=1;jettySize=auto;html=1;entryX=0.5;entryY=0;entryDx=0;entryDy=0;" edge="1" parent="1" source="s22BSp-2CHlA1629Z4m0-14" target="s22BSp-2CHlA1629Z4m0-18">
          <mxGeometry relative="1" as="geometry" />
        </mxCell>
        <mxCell id="s22BSp-2CHlA1629Z4m0-26" style="edgeStyle=orthogonalEdgeStyle;rounded=0;orthogonalLoop=1;jettySize=auto;html=1;" edge="1" parent="1" source="s22BSp-2CHlA1629Z4m0-14" target="s22BSp-2CHlA1629Z4m0-20">
          <mxGeometry relative="1" as="geometry" />
        </mxCell>
        <mxCell id="s22BSp-2CHlA1629Z4m0-27" style="edgeStyle=orthogonalEdgeStyle;rounded=0;orthogonalLoop=1;jettySize=auto;html=1;entryX=0.5;entryY=0;entryDx=0;entryDy=0;" edge="1" parent="1" source="s22BSp-2CHlA1629Z4m0-14" target="s22BSp-2CHlA1629Z4m0-22">
          <mxGeometry relative="1" as="geometry" />
        </mxCell>
        <mxCell id="s22BSp-2CHlA1629Z4m0-14" value="«Front-End»&lt;br&gt;&lt;b&gt;ReactJS&lt;/b&gt;" style="html=1;dropTarget=0;whiteSpace=wrap;fillColor=#60a917;fontColor=#ffffff;strokeColor=#2D7600;" vertex="1" parent="1">
          <mxGeometry x="50" y="110" width="130" height="60" as="geometry" />
        </mxCell>
        <mxCell id="s22BSp-2CHlA1629Z4m0-15" value="" style="shape=module;jettyWidth=8;jettyHeight=4;fillColor=#60a917;fontColor=#ffffff;strokeColor=#2D7600;" vertex="1" parent="s22BSp-2CHlA1629Z4m0-14">
          <mxGeometry x="1" width="20" height="20" relative="1" as="geometry">
            <mxPoint x="-27" y="7" as="offset" />
          </mxGeometry>
        </mxCell>
        <mxCell id="s22BSp-2CHlA1629Z4m0-38" style="edgeStyle=orthogonalEdgeStyle;rounded=0;orthogonalLoop=1;jettySize=auto;html=1;entryX=0.5;entryY=0;entryDx=0;entryDy=0;" edge="1" parent="1" source="s22BSp-2CHlA1629Z4m0-16" target="s22BSp-2CHlA1629Z4m0-30">
          <mxGeometry relative="1" as="geometry" />
        </mxCell>
        <mxCell id="s22BSp-2CHlA1629Z4m0-16" value="«Controllers»&lt;br&gt;&lt;b&gt;UsuarioController&lt;/b&gt;" style="html=1;dropTarget=0;whiteSpace=wrap;fillColor=#1ba1e2;fontColor=#ffffff;strokeColor=#006EAF;" vertex="1" parent="1">
          <mxGeometry x="50" y="220" width="130" height="60" as="geometry" />
        </mxCell>
        <mxCell id="s22BSp-2CHlA1629Z4m0-17" value="" style="shape=module;jettyWidth=8;jettyHeight=4;fillColor=#1ba1e2;fontColor=#ffffff;strokeColor=#006EAF;" vertex="1" parent="s22BSp-2CHlA1629Z4m0-16">
          <mxGeometry x="1" width="20" height="20" relative="1" as="geometry">
            <mxPoint x="-27" y="7" as="offset" />
          </mxGeometry>
        </mxCell>
        <mxCell id="s22BSp-2CHlA1629Z4m0-39" style="edgeStyle=orthogonalEdgeStyle;rounded=0;orthogonalLoop=1;jettySize=auto;html=1;entryX=0.5;entryY=0;entryDx=0;entryDy=0;" edge="1" parent="1" source="s22BSp-2CHlA1629Z4m0-18" target="s22BSp-2CHlA1629Z4m0-32">
          <mxGeometry relative="1" as="geometry" />
        </mxCell>
        <mxCell id="s22BSp-2CHlA1629Z4m0-18" value="«Controllers»&lt;br&gt;&lt;b&gt;LivroController&lt;/b&gt;" style="html=1;dropTarget=0;whiteSpace=wrap;fillColor=#1ba1e2;fontColor=#ffffff;strokeColor=#006EAF;" vertex="1" parent="1">
          <mxGeometry x="200" y="220" width="130" height="60" as="geometry" />
        </mxCell>
        <mxCell id="s22BSp-2CHlA1629Z4m0-19" value="" style="shape=module;jettyWidth=8;jettyHeight=4;fillColor=#1ba1e2;fontColor=#ffffff;strokeColor=#006EAF;" vertex="1" parent="s22BSp-2CHlA1629Z4m0-18">
          <mxGeometry x="1" width="20" height="20" relative="1" as="geometry">
            <mxPoint x="-27" y="7" as="offset" />
          </mxGeometry>
        </mxCell>
        <mxCell id="s22BSp-2CHlA1629Z4m0-41" style="edgeStyle=orthogonalEdgeStyle;rounded=0;orthogonalLoop=1;jettySize=auto;html=1;" edge="1" parent="1" source="s22BSp-2CHlA1629Z4m0-20" target="s22BSp-2CHlA1629Z4m0-34">
          <mxGeometry relative="1" as="geometry" />
        </mxCell>
        <mxCell id="s22BSp-2CHlA1629Z4m0-20" value="«Controllers»&lt;br&gt;&lt;b&gt;EmprestimoController&lt;/b&gt;" style="html=1;dropTarget=0;whiteSpace=wrap;fillColor=#1ba1e2;fontColor=#ffffff;strokeColor=#006EAF;" vertex="1" parent="1">
          <mxGeometry x="350" y="220" width="130" height="60" as="geometry" />
        </mxCell>
        <mxCell id="s22BSp-2CHlA1629Z4m0-21" value="" style="shape=module;jettyWidth=8;jettyHeight=4;fillColor=#1ba1e2;fontColor=#ffffff;strokeColor=#006EAF;" vertex="1" parent="s22BSp-2CHlA1629Z4m0-20">
          <mxGeometry x="1" width="20" height="20" relative="1" as="geometry">
            <mxPoint x="-27" y="7" as="offset" />
          </mxGeometry>
        </mxCell>
        <mxCell id="s22BSp-2CHlA1629Z4m0-42" style="edgeStyle=orthogonalEdgeStyle;rounded=0;orthogonalLoop=1;jettySize=auto;html=1;entryX=0.5;entryY=0;entryDx=0;entryDy=0;" edge="1" parent="1" source="s22BSp-2CHlA1629Z4m0-22" target="s22BSp-2CHlA1629Z4m0-36">
          <mxGeometry relative="1" as="geometry" />
        </mxCell>
        <mxCell id="s22BSp-2CHlA1629Z4m0-22" value="«Controllers»&lt;br&gt;&lt;b&gt;ReservaController&lt;/b&gt;" style="html=1;dropTarget=0;whiteSpace=wrap;fillColor=#1ba1e2;fontColor=#ffffff;strokeColor=#006EAF;" vertex="1" parent="1">
          <mxGeometry x="500" y="220" width="130" height="60" as="geometry" />
        </mxCell>
        <mxCell id="s22BSp-2CHlA1629Z4m0-23" value="" style="shape=module;jettyWidth=8;jettyHeight=4;fillColor=#1ba1e2;fontColor=#ffffff;strokeColor=#006EAF;" vertex="1" parent="s22BSp-2CHlA1629Z4m0-22">
          <mxGeometry x="1" width="20" height="20" relative="1" as="geometry">
            <mxPoint x="-27" y="7" as="offset" />
          </mxGeometry>
        </mxCell>
        <mxCell id="s22BSp-2CHlA1629Z4m0-52" style="edgeStyle=orthogonalEdgeStyle;rounded=0;orthogonalLoop=1;jettySize=auto;html=1;entryX=0.5;entryY=0;entryDx=0;entryDy=0;" edge="1" parent="1" source="s22BSp-2CHlA1629Z4m0-30" target="s22BSp-2CHlA1629Z4m0-44">
          <mxGeometry relative="1" as="geometry" />
        </mxCell>
        <mxCell id="s22BSp-2CHlA1629Z4m0-30" value="«Services»&lt;br&gt;&lt;b&gt;UsuarioService&lt;/b&gt;" style="html=1;dropTarget=0;whiteSpace=wrap;fillColor=#a20025;fontColor=#ffffff;strokeColor=#6F0000;" vertex="1" parent="1">
          <mxGeometry x="50" y="330" width="130" height="60" as="geometry" />
        </mxCell>
        <mxCell id="s22BSp-2CHlA1629Z4m0-31" value="" style="shape=module;jettyWidth=8;jettyHeight=4;fillColor=#a20025;fontColor=#ffffff;strokeColor=#6F0000;" vertex="1" parent="s22BSp-2CHlA1629Z4m0-30">
          <mxGeometry x="1" width="20" height="20" relative="1" as="geometry">
            <mxPoint x="-27" y="7" as="offset" />
          </mxGeometry>
        </mxCell>
        <mxCell id="s22BSp-2CHlA1629Z4m0-53" style="edgeStyle=orthogonalEdgeStyle;rounded=0;orthogonalLoop=1;jettySize=auto;html=1;entryX=0.5;entryY=0;entryDx=0;entryDy=0;" edge="1" parent="1" source="s22BSp-2CHlA1629Z4m0-32" target="s22BSp-2CHlA1629Z4m0-46">
          <mxGeometry relative="1" as="geometry" />
        </mxCell>
        <mxCell id="s22BSp-2CHlA1629Z4m0-32" value="«Services»&lt;br&gt;&lt;b&gt;LivroService&lt;/b&gt;" style="html=1;dropTarget=0;whiteSpace=wrap;fillColor=#a20025;fontColor=#ffffff;strokeColor=#6F0000;" vertex="1" parent="1">
          <mxGeometry x="200" y="330" width="130" height="60" as="geometry" />
        </mxCell>
        <mxCell id="s22BSp-2CHlA1629Z4m0-33" value="" style="shape=module;jettyWidth=8;jettyHeight=4;fillColor=#a20025;fontColor=#ffffff;strokeColor=#6F0000;" vertex="1" parent="s22BSp-2CHlA1629Z4m0-32">
          <mxGeometry x="1" width="20" height="20" relative="1" as="geometry">
            <mxPoint x="-27" y="7" as="offset" />
          </mxGeometry>
        </mxCell>
        <mxCell id="s22BSp-2CHlA1629Z4m0-56" style="edgeStyle=orthogonalEdgeStyle;rounded=0;orthogonalLoop=1;jettySize=auto;html=1;entryX=0.5;entryY=0;entryDx=0;entryDy=0;" edge="1" parent="1" source="s22BSp-2CHlA1629Z4m0-34" target="s22BSp-2CHlA1629Z4m0-48">
          <mxGeometry relative="1" as="geometry" />
        </mxCell>
        <mxCell id="s22BSp-2CHlA1629Z4m0-34" value="«Services»&lt;br&gt;&lt;b&gt;EmprestimoService&lt;/b&gt;" style="html=1;dropTarget=0;whiteSpace=wrap;fillColor=#a20025;fontColor=#ffffff;strokeColor=#6F0000;" vertex="1" parent="1">
          <mxGeometry x="350" y="330" width="130" height="60" as="geometry" />
        </mxCell>
        <mxCell id="s22BSp-2CHlA1629Z4m0-35" value="" style="shape=module;jettyWidth=8;jettyHeight=4;fillColor=#a20025;fontColor=#ffffff;strokeColor=#6F0000;" vertex="1" parent="s22BSp-2CHlA1629Z4m0-34">
          <mxGeometry x="1" width="20" height="20" relative="1" as="geometry">
            <mxPoint x="-27" y="7" as="offset" />
          </mxGeometry>
        </mxCell>
        <mxCell id="s22BSp-2CHlA1629Z4m0-57" style="edgeStyle=orthogonalEdgeStyle;rounded=0;orthogonalLoop=1;jettySize=auto;html=1;entryX=0.5;entryY=0;entryDx=0;entryDy=0;" edge="1" parent="1" source="s22BSp-2CHlA1629Z4m0-36" target="s22BSp-2CHlA1629Z4m0-50">
          <mxGeometry relative="1" as="geometry" />
        </mxCell>
        <mxCell id="s22BSp-2CHlA1629Z4m0-36" value="«Services»&lt;br&gt;&lt;b&gt;ReservaService&lt;/b&gt;" style="html=1;dropTarget=0;whiteSpace=wrap;fillColor=#a20025;fontColor=#ffffff;strokeColor=#6F0000;" vertex="1" parent="1">
          <mxGeometry x="500" y="330" width="130" height="60" as="geometry" />
        </mxCell>
        <mxCell id="s22BSp-2CHlA1629Z4m0-37" value="" style="shape=module;jettyWidth=8;jettyHeight=4;fillColor=#a20025;fontColor=#ffffff;strokeColor=#6F0000;" vertex="1" parent="s22BSp-2CHlA1629Z4m0-36">
          <mxGeometry x="1" width="20" height="20" relative="1" as="geometry">
            <mxPoint x="-27" y="7" as="offset" />
          </mxGeometry>
        </mxCell>
        <mxCell id="s22BSp-2CHlA1629Z4m0-71" style="edgeStyle=orthogonalEdgeStyle;rounded=0;orthogonalLoop=1;jettySize=auto;html=1;entryX=0;entryY=0.7;entryDx=0;entryDy=0;" edge="1" parent="1" source="s22BSp-2CHlA1629Z4m0-44" target="s22BSp-2CHlA1629Z4m0-60">
          <mxGeometry relative="1" as="geometry">
            <Array as="points">
              <mxPoint x="115" y="606" />
            </Array>
          </mxGeometry>
        </mxCell>
        <mxCell id="s22BSp-2CHlA1629Z4m0-44" value="«Repositories»&lt;br&gt;&lt;b&gt;UsuarioRepository&lt;/b&gt;" style="html=1;dropTarget=0;whiteSpace=wrap;fillColor=#d80073;fontColor=#ffffff;strokeColor=#A50040;" vertex="1" parent="1">
          <mxGeometry x="50" y="440" width="130" height="60" as="geometry" />
        </mxCell>
        <mxCell id="s22BSp-2CHlA1629Z4m0-45" value="" style="shape=module;jettyWidth=8;jettyHeight=4;fillColor=#d80073;fontColor=#ffffff;strokeColor=#A50040;" vertex="1" parent="s22BSp-2CHlA1629Z4m0-44">
          <mxGeometry x="1" width="20" height="20" relative="1" as="geometry">
            <mxPoint x="-27" y="7" as="offset" />
          </mxGeometry>
        </mxCell>
        <mxCell id="s22BSp-2CHlA1629Z4m0-70" style="edgeStyle=orthogonalEdgeStyle;rounded=0;orthogonalLoop=1;jettySize=auto;html=1;entryX=0;entryY=0.5;entryDx=0;entryDy=0;" edge="1" parent="1" source="s22BSp-2CHlA1629Z4m0-46" target="s22BSp-2CHlA1629Z4m0-60">
          <mxGeometry relative="1" as="geometry" />
        </mxCell>
        <mxCell id="s22BSp-2CHlA1629Z4m0-46" value="«Repositories»&lt;br&gt;&lt;b&gt;LivroRepository&lt;/b&gt;" style="html=1;dropTarget=0;whiteSpace=wrap;fillColor=#d80073;fontColor=#ffffff;strokeColor=#A50040;" vertex="1" parent="1">
          <mxGeometry x="200" y="440" width="130" height="60" as="geometry" />
        </mxCell>
        <mxCell id="s22BSp-2CHlA1629Z4m0-47" value="" style="shape=module;jettyWidth=8;jettyHeight=4;fillColor=#d80073;fontColor=#ffffff;strokeColor=#A50040;" vertex="1" parent="s22BSp-2CHlA1629Z4m0-46">
          <mxGeometry x="1" width="20" height="20" relative="1" as="geometry">
            <mxPoint x="-27" y="7" as="offset" />
          </mxGeometry>
        </mxCell>
        <mxCell id="s22BSp-2CHlA1629Z4m0-69" style="edgeStyle=orthogonalEdgeStyle;rounded=0;orthogonalLoop=1;jettySize=auto;html=1;entryX=1;entryY=0.5;entryDx=0;entryDy=0;" edge="1" parent="1" source="s22BSp-2CHlA1629Z4m0-48" target="s22BSp-2CHlA1629Z4m0-60">
          <mxGeometry relative="1" as="geometry" />
        </mxCell>
        <mxCell id="s22BSp-2CHlA1629Z4m0-48" value="«Repositories»&lt;br&gt;&lt;b&gt;EmprestimoRepository&lt;/b&gt;" style="html=1;dropTarget=0;whiteSpace=wrap;fillColor=#d80073;fontColor=#ffffff;strokeColor=#A50040;" vertex="1" parent="1">
          <mxGeometry x="350" y="440" width="130" height="60" as="geometry" />
        </mxCell>
        <mxCell id="s22BSp-2CHlA1629Z4m0-49" value="" style="shape=module;jettyWidth=8;jettyHeight=4;fillColor=#d80073;fontColor=#ffffff;strokeColor=#A50040;" vertex="1" parent="s22BSp-2CHlA1629Z4m0-48">
          <mxGeometry x="1" width="20" height="20" relative="1" as="geometry">
            <mxPoint x="-27" y="7" as="offset" />
          </mxGeometry>
        </mxCell>
        <mxCell id="s22BSp-2CHlA1629Z4m0-72" style="edgeStyle=orthogonalEdgeStyle;rounded=0;orthogonalLoop=1;jettySize=auto;html=1;entryX=1;entryY=0.7;entryDx=0;entryDy=0;" edge="1" parent="1" source="s22BSp-2CHlA1629Z4m0-50" target="s22BSp-2CHlA1629Z4m0-60">
          <mxGeometry relative="1" as="geometry">
            <Array as="points">
              <mxPoint x="565" y="606" />
            </Array>
          </mxGeometry>
        </mxCell>
        <mxCell id="s22BSp-2CHlA1629Z4m0-50" value="«Repositories»&lt;br&gt;&lt;b&gt;ReservaRepository&lt;/b&gt;" style="html=1;dropTarget=0;whiteSpace=wrap;fillColor=#d80073;fontColor=#ffffff;strokeColor=#A50040;" vertex="1" parent="1">
          <mxGeometry x="500" y="440" width="130" height="60" as="geometry" />
        </mxCell>
        <mxCell id="s22BSp-2CHlA1629Z4m0-51" value="" style="shape=module;jettyWidth=8;jettyHeight=4;fillColor=#d80073;fontColor=#ffffff;strokeColor=#A50040;" vertex="1" parent="s22BSp-2CHlA1629Z4m0-50">
          <mxGeometry x="1" width="20" height="20" relative="1" as="geometry">
            <mxPoint x="-27" y="7" as="offset" />
          </mxGeometry>
        </mxCell>
        <mxCell id="s22BSp-2CHlA1629Z4m0-58" style="edgeStyle=orthogonalEdgeStyle;rounded=0;orthogonalLoop=1;jettySize=auto;html=1;entryX=0.75;entryY=0;entryDx=0;entryDy=0;" edge="1" parent="1" source="s22BSp-2CHlA1629Z4m0-54" target="s22BSp-2CHlA1629Z4m0-48">
          <mxGeometry relative="1" as="geometry">
            <Array as="points">
              <mxPoint x="715" y="400" />
              <mxPoint x="448" y="400" />
            </Array>
          </mxGeometry>
        </mxCell>
        <mxCell id="s22BSp-2CHlA1629Z4m0-59" style="edgeStyle=orthogonalEdgeStyle;rounded=0;orthogonalLoop=1;jettySize=auto;html=1;entryX=0.75;entryY=0;entryDx=0;entryDy=0;" edge="1" parent="1" source="s22BSp-2CHlA1629Z4m0-54" target="s22BSp-2CHlA1629Z4m0-46">
          <mxGeometry relative="1" as="geometry">
            <Array as="points">
              <mxPoint x="725" y="410" />
              <mxPoint x="298" y="410" />
            </Array>
          </mxGeometry>
        </mxCell>
        <mxCell id="s22BSp-2CHlA1629Z4m0-54" value="«Services»&lt;br&gt;&lt;b&gt;RelatorioService&lt;/b&gt;" style="html=1;dropTarget=0;whiteSpace=wrap;fillColor=#a20025;fontColor=#ffffff;strokeColor=#6F0000;" vertex="1" parent="1">
          <mxGeometry x="650" y="330" width="130" height="60" as="geometry" />
        </mxCell>
        <mxCell id="s22BSp-2CHlA1629Z4m0-55" value="" style="shape=module;jettyWidth=8;jettyHeight=4;fillColor=#a20025;fontColor=#ffffff;strokeColor=#6F0000;" vertex="1" parent="s22BSp-2CHlA1629Z4m0-54">
          <mxGeometry x="1" width="20" height="20" relative="1" as="geometry">
            <mxPoint x="-27" y="7" as="offset" />
          </mxGeometry>
        </mxCell>
        <mxCell id="s22BSp-2CHlA1629Z4m0-60" value="Banco&lt;div&gt;de&lt;/div&gt;&lt;div&gt;Dados&lt;/div&gt;" style="shape=datastore;whiteSpace=wrap;html=1;fillColor=#e3c800;strokeColor=#B09500;fontColor=#000000;" vertex="1" parent="1">
          <mxGeometry x="310" y="550" width="70" height="80" as="geometry" />
        </mxCell>
      </root>
    </mxGraphModel>
  </diagram>
</mxfile>
